<svg width="320" height="240" viewBox="0 0 320 240" fill="none" xmlns="http://www.w3.org/2000/svg">
<g clip-path="url(#clip0_6208_7320)">
<path d="M320 210.912H0V211.073H320V210.912Z" fill="#A7B8F6"/>
<path d="M287.935 221.276H266.738V221.437H287.935V221.276Z" fill="#A7B8F6"/>
<path d="M211.982 223.028H206.42V223.189H211.982V223.028Z" fill="#A7B8F6"/>
<path d="M266.1 215.299H253.818V215.46H266.1V215.299Z" fill="#A7B8F6"/>
<path d="M61.2158 216.381H33.5742V216.542H61.2158V216.381Z" fill="#A7B8F6"/>
<path d="M70.9692 216.381H66.918V216.542H70.9692V216.381Z" fill="#A7B8F6"/>
<path d="M144.096 219.099H84.1406V219.26H144.096V219.099Z" fill="#A7B8F6"/>
<path d="M151.686 182.185H28.1017C26.0857 182.185 24.4473 180.536 24.4473 178.507V3.67784C24.4473 1.64891 26.0857 0 28.1017 0H151.686C153.702 0 155.34 1.64891 155.34 3.67784V178.507C155.34 180.536 153.702 182.185 151.686 182.185ZM28.1017 0.161026C26.1753 0.161026 24.6073 1.73908 24.6073 3.67784V178.507C24.6073 180.446 26.1753 182.024 28.1017 182.024H151.686C153.612 182.024 155.18 180.446 155.18 178.507V3.67784C155.18 1.73908 153.612 0.161026 151.686 0.161026H28.1017Z" fill="#A7B8F6"/>
<path d="M290.119 182.185H166.535C164.519 182.185 162.881 180.536 162.881 178.507V3.67784C162.881 1.64891 164.519 0 166.535 0H290.119C292.135 0 293.774 1.64891 293.774 3.67784V178.507C293.774 180.536 292.135 182.185 290.119 182.185ZM166.535 0.161026C164.609 0.161026 163.041 1.73908 163.041 3.67784V178.507C163.041 180.446 164.609 182.024 166.535 182.024H290.119C292.046 182.024 293.614 180.446 293.614 178.507V3.67784C293.614 1.73908 292.046 0.161026 290.119 0.161026H166.535Z" fill="#A7B8F6"/>
<path d="M42.7438 210.906H129.592L129.592 26.1829H42.7438L42.7438 210.906Z" fill="#ECF1FF"/>
<path d="M40.818 210.906H127.666L127.666 26.1829H40.818L40.818 210.906Z" fill="#E1E7FF"/>
<path d="M124.197 206.996L124.197 30.1055L44.2805 30.1055L44.2805 206.996H124.197Z" fill="#EFF3FF"/>
<path d="M105.798 206.996L85.5483 30.1055H62.6875L82.9371 206.996H105.798Z" fill="#EFF3FF"/>
<path d="M45.7461 206.996L45.7461 30.1055H44.2869L44.2869 206.996H45.7461Z" fill="#ECF1FF"/>
<path d="M42.2516 50.6782L126.232 50.6782V45.4223L42.2516 45.4223V50.6782Z" fill="#E1E7FF"/>
<path d="M175.508 210.906V103.727H140.442V210.906H175.508Z" fill="#E1E7FF"/>
<path d="M173.58 138.27V106.857H142.367V138.27H173.58Z" fill="#E1E7FF"/>
<path d="M173.58 172.511V141.098H142.367V172.511H173.58Z" fill="#E1E7FF"/>
<path d="M173.58 206.745V175.332H142.367V206.745H173.58Z" fill="#E1E7FF"/>
<path d="M164.882 106.445H151.064C151.064 108.242 152.511 109.704 154.303 109.704H161.65C163.436 109.704 164.888 108.248 164.888 106.445H164.882Z" fill="#ECF1FF"/>
<path d="M164.882 140.685H151.064C151.064 142.482 152.511 143.945 154.303 143.945H161.65C163.436 143.945 164.888 142.489 164.888 140.685H164.882Z" fill="#ECF1FF"/>
<path d="M164.882 174.92H151.064C151.064 176.717 152.511 178.179 154.303 178.179H161.65C163.436 178.179 164.888 176.723 164.888 174.92H164.882Z" fill="#ECF1FF"/>
<path d="M193.018 210.912V103.733H175.501V210.912H193.018Z" fill="#E1E7FF"/>
<path d="M269.112 208.278H278.834V127.584H269.112V208.278Z" fill="#E1E7FF"/>
<path d="M184.14 210.906H277.49V208.271H184.14V210.906Z" fill="#E1E7FF"/>
<path d="M269.112 127.584H182.789V208.278H269.112V127.584Z" fill="#EFF3FF"/>
<path d="M199.692 174.739H252.211C257.369 174.739 261.561 170.52 261.561 165.329C261.561 160.137 257.369 155.919 252.211 155.919H199.692C194.534 155.919 190.342 160.137 190.342 165.329C190.342 170.52 194.534 174.739 199.692 174.739ZM252.211 156.55C257.017 156.55 260.934 160.485 260.934 165.329C260.934 170.173 257.023 174.108 252.211 174.108H199.692C194.886 174.108 190.969 170.173 190.969 165.329C190.969 160.485 194.879 156.55 199.692 156.55H252.211Z" fill="#E1E7FF"/>
<path d="M199.692 198.146H252.211C257.369 198.146 261.561 193.927 261.561 188.736C261.561 183.544 257.369 179.325 252.211 179.325H199.692C194.534 179.325 190.342 183.544 190.342 188.736C190.342 193.927 194.534 198.146 199.692 198.146ZM252.211 179.957C257.017 179.957 260.934 183.892 260.934 188.736C260.934 193.579 257.023 197.515 252.211 197.515H199.692C194.886 197.515 190.969 193.579 190.969 188.736C190.969 183.892 194.879 179.957 199.692 179.957H252.211Z" fill="#E1E7FF"/>
<path d="M218.028 163.3H233.881C234.956 163.3 235.833 162.418 235.833 161.335C235.833 160.253 234.956 159.371 233.881 159.371H218.028C216.953 159.371 216.076 160.253 216.076 161.335C216.076 162.418 216.953 163.3 218.028 163.3Z" fill="#A7B8F6"/>
<path d="M199.692 151.326H252.211C257.369 151.326 261.561 147.107 261.561 141.916C261.561 136.724 257.369 132.505 252.211 132.505H199.692C194.534 132.505 190.342 136.724 190.342 141.916C190.342 147.107 194.534 151.326 199.692 151.326ZM252.211 133.137C257.017 133.137 260.934 137.072 260.934 141.916C260.934 146.759 257.023 150.695 252.211 150.695H199.692C194.886 150.695 190.969 146.759 190.969 141.916C190.969 137.072 194.879 133.137 199.692 133.137H252.211Z" fill="#E1E7FF"/>
<path d="M218.028 139.887H233.881C234.956 139.887 235.833 139.004 235.833 137.922C235.833 136.84 234.956 135.958 233.881 135.958H218.028C216.953 135.958 216.076 136.84 216.076 137.922C216.076 139.004 216.953 139.887 218.028 139.887Z" fill="#A7B8F6"/>
<path d="M218.028 186.707H233.881C234.956 186.707 235.833 185.824 235.833 184.742C235.833 183.66 234.956 182.778 233.881 182.778H218.028C216.953 182.778 216.076 183.66 216.076 184.742C216.076 185.824 216.953 186.707 218.028 186.707Z" fill="#A7B8F6"/>
<path d="M181.009 127.591L269.105 127.591V123.488L181.009 123.488V127.591Z" fill="#E1E7FF"/>
<path d="M280.74 123.481H269.111V127.584H280.74V123.481Z" fill="#ECF1FF"/>
<path d="M160 240C228.533 240 284.089 236.736 284.089 232.709C284.089 228.682 228.533 225.417 160 225.417C91.467 225.417 35.9102 228.682 35.9102 232.709C35.9102 236.736 91.467 240 160 240Z" fill="#E1E7FF"/>
<g opacity="0.2">
<path d="M230.867 227.311L190.105 151.494L149.344 227.311H230.867Z" fill="#E1E7FF"/>
<path d="M230.867 99.044L190.105 174.862L149.344 99.044H230.867Z" fill="#E1E7FF"/>
</g>
<path d="M197.574 143.803L191.609 154.901C190.962 156.099 189.247 156.099 188.607 154.901L182.642 143.803C180.287 139.423 183.436 134.109 188.383 134.109H191.833C196.78 134.109 199.929 139.429 197.574 143.803Z" fill="#829AF0"/>
<path d="M190.752 208.175L209.254 215.84C210.982 216.555 210.477 219.15 208.602 219.15H171.597C169.728 219.15 169.216 216.561 170.944 215.84L189.446 208.175C189.862 208.001 190.33 208.001 190.746 208.175H190.752Z" fill="#829AF0"/>
<path d="M190.105 193.586C191.416 193.586 192.479 192.516 192.479 191.196C192.479 189.876 191.416 188.807 190.105 188.807C188.794 188.807 187.73 189.876 187.73 191.196C187.73 192.516 188.794 193.586 190.105 193.586Z" fill="#829AF0"/>
<path d="M190.105 167.474C190.78 167.474 191.328 166.923 191.328 166.244C191.328 165.564 190.78 165.013 190.105 165.013C189.43 165.013 188.883 165.564 188.883 166.244C188.883 166.923 189.43 167.474 190.105 167.474Z" fill="#829AF0"/>
<path d="M190.106 179.538C190.873 179.538 191.494 178.912 191.494 178.14C191.494 177.368 190.873 176.742 190.106 176.742C189.339 176.742 188.717 177.368 188.717 178.14C188.717 178.912 189.339 179.538 190.106 179.538Z" fill="#829AF0"/>
<path d="M230.663 223.575H149.556C147.514 223.575 145.844 225.256 145.844 227.311C145.844 229.366 147.514 231.047 149.556 231.047H230.663C232.705 231.047 234.375 229.366 234.375 227.311C234.375 225.256 232.705 223.575 230.663 223.575Z" fill="#829AF0"/>
<path d="M124.563 225.901L120.051 224.432L122.854 213.721L127.366 215.196L124.563 225.901Z" fill="#F6D8BF"/>
<path d="M119.981 223.827L125.05 225.482C125.235 225.54 125.331 225.714 125.286 225.901L124.23 230.016C124.122 230.441 123.603 230.712 123.181 230.564C121.427 229.958 120.614 229.578 118.387 228.851C117.018 228.4 112.493 227.227 110.598 226.609C108.749 226.004 109.363 224.123 110.221 224.213C114.067 224.625 117.51 224.438 119.11 223.846C119.398 223.736 119.706 223.73 119.981 223.82V223.827Z" fill="black"/>
<path opacity="0.2" d="M127.367 215.196L122.855 213.721L121.408 219.241L125.927 220.716L127.367 215.196Z" fill="black"/>
<path d="M139.7 106.773C139.7 106.773 131.604 144.486 129.703 158.044C127.623 172.891 119.809 217.476 119.809 217.476L128.186 219.807C128.186 219.807 139.796 176.569 143.181 162.134C146.861 146.47 156.647 106.78 156.647 106.78H139.693L139.7 106.773Z" fill="#829AF0"/>
<path opacity="0.3" d="M149.708 119.14C146.514 126.444 144.927 142.354 146.169 149.638C148.434 140.267 151.161 129.124 153.266 120.551C152.556 118.064 151.378 115.321 149.708 119.14Z" fill="black"/>
<path d="M128.397 219.975L119.424 217.482L119.597 213.804L129.702 217.321L128.397 219.975Z" fill="black"/>
<path d="M118.125 224.097C118.541 224.232 119.034 224.297 119.379 224.329C119.424 224.329 119.462 224.31 119.488 224.271C119.507 224.232 119.507 224.187 119.482 224.149C119.373 224 118.374 222.706 117.754 222.744C117.613 222.751 117.491 222.828 117.414 222.963C117.286 223.189 117.267 223.395 117.363 223.582C117.485 223.82 117.786 223.981 118.131 224.097H118.125ZM119.142 224.078C118.285 223.975 117.696 223.756 117.555 223.479C117.498 223.363 117.51 223.234 117.6 223.079C117.645 223.009 117.696 222.97 117.766 222.97C118.099 222.951 118.726 223.575 119.142 224.084V224.078Z" fill="black"/>
<path d="M119.36 224.322C119.36 224.322 119.392 224.329 119.411 224.322C119.449 224.322 119.481 224.29 119.494 224.258C119.513 224.207 120.038 222.931 119.724 222.339C119.641 222.178 119.507 222.081 119.328 222.042C119.11 221.997 118.937 222.068 118.841 222.236C118.579 222.699 118.944 223.865 119.308 224.284C119.321 224.297 119.34 224.31 119.36 224.316V224.322ZM119.334 222.281C119.424 222.306 119.488 222.364 119.532 222.448C119.718 222.802 119.513 223.562 119.366 223.988C119.084 223.524 118.867 222.661 119.04 222.358C119.072 222.3 119.129 222.236 119.289 222.268C119.308 222.268 119.321 222.274 119.34 222.281H119.334Z" fill="black"/>
<path d="M148.315 70.9675C148.071 71.5408 147.867 71.9788 147.643 72.4747C147.419 72.9514 147.182 73.4151 146.945 73.8789C146.465 74.8064 145.972 75.721 145.454 76.6292C144.404 78.4327 143.271 80.1975 141.998 81.898C140.731 83.6049 139.335 85.2538 137.742 86.7932C136.155 88.339 134.337 89.7754 132.187 90.9219L132.027 91.0056C131.771 91.1409 131.483 91.2439 131.214 91.3019C129.671 91.6304 128.11 91.508 126.817 91.1216C125.511 90.7415 124.423 90.1747 123.463 89.5564C121.55 88.3068 120.123 86.8254 118.83 85.3311C117.556 83.811 116.455 82.2394 115.463 80.6162C114.471 78.9802 113.601 77.3635 112.814 75.5664C112.353 74.5101 112.833 73.2799 113.883 72.8161C114.753 72.4361 115.739 72.7002 116.315 73.4022L116.379 73.4795C117.435 74.7742 118.58 76.1397 119.732 77.3892C120.891 78.6517 122.081 79.8562 123.303 80.9189C124.513 81.9882 125.799 82.9092 126.977 83.4954C127.559 83.7852 128.116 83.9656 128.558 84.0171C128.999 84.0686 129.275 84.03 129.479 83.9398L128.5 84.3263C129.735 83.5211 130.945 82.4197 132.091 81.1701C133.23 79.9141 134.305 78.51 135.323 77.035C136.334 75.5535 137.294 74.0013 138.196 72.4039C138.651 71.6116 139.092 70.8001 139.515 69.9885L140.135 68.7647C140.334 68.3718 140.558 67.9273 140.705 67.6053L140.743 67.5216C141.723 65.4347 144.206 64.5394 146.279 65.5248C148.308 66.491 149.198 68.8999 148.321 70.9611L148.315 70.9675Z" fill="black"/>
<path opacity="0.3" d="M137.85 79.7145C139.859 74.3426 144.128 74.2524 145.978 75.6759C145.843 75.9271 145.702 76.1783 145.562 76.4295C144.563 78.175 143.469 79.8755 142.266 81.5244C141.062 83.1669 139.744 84.7707 138.253 86.2779C137.792 86.7352 137.318 87.1861 136.826 87.6241C136.723 85.0927 136.915 82.2265 137.85 79.7145Z" fill="black"/>
<path d="M112.627 75.9014L108.467 76.0495L109.504 71.5794C109.504 71.5794 111.98 71.6825 113.747 72.1977C114.816 72.5134 115.257 73.808 114.643 74.7484C114.195 75.444 113.44 75.8691 112.62 75.9014H112.627Z" fill="#F6D8BF"/>
<path d="M114.97 72.114C114.625 71.837 114.177 71.5794 113.601 71.399C113.249 73.2283 111.066 76.32 111.066 76.32H112.801C113.255 76.32 113.684 76.1203 113.978 75.7661L115.194 74.304C115.745 73.6405 115.655 72.6551 114.983 72.114H114.97Z" fill="#829AF0"/>
<path d="M105.293 73.9948L106.464 70.8387L109.504 71.5794L108.467 76.0495L105.293 73.9948Z" fill="#F6D8BF"/>
<path d="M157.6 227.994H152.858L152.691 216.935H157.434L157.6 227.994Z" fill="#F6D8BF"/>
<path d="M152.609 227.44H157.94C158.132 227.44 158.279 227.575 158.292 227.768L158.548 232.013C158.573 232.451 158.164 232.87 157.716 232.863C155.86 232.831 154.977 232.722 152.628 232.722C151.188 232.722 146.362 232.87 144.372 232.87C142.381 232.87 142.439 230.886 143.284 230.706C147.066 229.9 150.445 228.793 151.789 227.73C152.033 227.537 152.321 227.434 152.609 227.434V227.44Z" fill="black"/>
<path opacity="0.2" d="M157.44 216.935H152.691L152.775 222.635H157.523L157.44 216.935Z" fill="black"/>
<path d="M148.954 106.773C148.954 106.773 147.142 148.26 147.91 161.934C148.755 176.903 150.522 221.263 150.522 221.263H159.213C159.213 221.263 161.402 178.114 161.926 163.294C162.496 147.204 165.069 106.78 165.069 106.78H148.947L148.954 106.773Z" fill="#829AF0"/>
<path d="M159.565 221.263H150.176L149.459 217.746L159.821 218.268L159.565 221.263Z" fill="black"/>
<path d="M150.925 228.271C151.36 228.271 151.847 228.181 152.192 228.097C152.237 228.084 152.269 228.052 152.276 228.007C152.282 227.962 152.263 227.917 152.231 227.897C152.077 227.794 150.733 226.867 150.157 227.099C150.023 227.15 149.933 227.26 149.901 227.414C149.844 227.665 149.888 227.872 150.042 228.02C150.228 228.206 150.567 228.271 150.932 228.271H150.925ZM151.885 227.942C151.034 228.11 150.413 228.084 150.189 227.865C150.1 227.775 150.074 227.646 150.112 227.466C150.132 227.382 150.17 227.337 150.234 227.311C150.548 227.189 151.335 227.588 151.885 227.942Z" fill="black"/>
<path d="M152.167 228.103C152.167 228.103 152.199 228.103 152.218 228.091C152.25 228.071 152.276 228.039 152.276 228C152.276 227.942 152.385 226.57 151.911 226.107C151.783 225.984 151.623 225.933 151.444 225.952C151.226 225.978 151.085 226.1 151.041 226.287C150.932 226.809 151.636 227.807 152.109 228.091C152.129 228.103 152.148 228.103 152.167 228.103ZM151.514 226.171C151.604 226.171 151.687 226.203 151.751 226.268C152.039 226.545 152.077 227.33 152.065 227.788C151.655 227.44 151.181 226.68 151.252 226.339C151.265 226.274 151.303 226.197 151.463 226.178C151.482 226.178 151.495 226.178 151.514 226.178V226.171Z" fill="black"/>
<path d="M167.451 68.2687C167.751 66.5812 166.599 64.9773 164.916 64.7326H164.859C163.329 64.5007 161.409 64.2688 159.527 64.1787C156.289 64.0241 151.598 63.921 148.743 64.1787C147.086 64.3332 145.467 64.6102 144.174 64.8614C144.155 64.8614 144.142 64.8679 144.123 64.8743C142.478 65.2092 141.147 66.433 140.673 68.0562C139.124 73.3056 137.281 84.0235 139.694 106.78H165.07C165.249 104.5 164.743 97.0795 165.115 87.6305C165.396 80.4294 166.67 72.6744 167.451 68.2752V68.2687Z" fill="black"/>
<path opacity="0.3" d="M167.206 69.6729C166.682 72.7259 166.029 76.874 165.581 81.2474C165.581 81.2474 163.264 76.6743 162.842 72.7646C162.419 68.8549 165.728 68.5779 167.2 69.6729H167.206Z" fill="black"/>
<g opacity="0.2">
<path d="M150.188 70.2719C150.099 70.2719 150.015 70.2268 149.977 70.143C149.913 70.0271 149.964 69.879 150.08 69.8145L157.99 65.6858C158.112 65.6279 158.252 65.673 158.316 65.7889C158.38 65.9048 158.329 66.053 158.214 66.1174L150.304 70.2461C150.265 70.2654 150.233 70.2719 150.195 70.2719H150.188Z" fill="#EFF3FF"/>
<path d="M153.811 70.6519C153.747 70.6519 153.69 70.6261 153.645 70.581L149.312 66.2398C149.216 66.1431 149.216 65.995 149.312 65.8984C149.408 65.8018 149.555 65.8018 149.651 65.8984L153.984 70.2397C154.08 70.3363 154.08 70.4844 153.984 70.581C153.939 70.6261 153.875 70.6519 153.811 70.6519Z" fill="#EFF3FF"/>
<path d="M159.527 64.1722C156.289 64.0176 151.597 63.9145 148.749 64.1722C148.692 64.1722 148.628 64.1851 148.57 64.1915C148.468 64.6166 148.372 65.4089 148.845 66.1689C149.447 67.1351 150.708 67.6761 152.602 67.7792C152.845 67.7921 153.082 67.7985 153.313 67.7985C158.465 67.7985 160.41 64.6682 160.493 64.5329L160.673 64.243C160.289 64.2173 159.911 64.1915 159.527 64.1722Z" fill="#EFF3FF"/>
</g>
<path d="M149.262 64.1336C152.398 63.3864 152.948 61.4348 152.737 59.2899C152.692 58.7682 152.603 58.2271 152.487 57.6925L156.417 54.4076L159.303 51.9986C158.503 55.4961 157.601 61.8663 159.95 64.198C159.95 64.198 158.004 67.4249 152.641 67.1287C148.11 66.8839 149.262 64.1336 149.262 64.1336Z" fill="#F6D8BF"/>
<path opacity="0.2" d="M152.486 57.6925C152.602 58.2271 152.691 58.7682 152.736 59.2899C154.202 58.9936 156.16 57.422 156.365 55.9148C156.442 55.348 156.454 54.8005 156.416 54.4076L152.486 57.6925Z" fill="black"/>
<path d="M150.38 40.9329C148.249 42.1953 148.588 45.4416 148.006 47.7475C149.363 47.8828 151.5 45.4545 151.5 45.4545L152.774 41.7638L150.374 40.9329H150.38Z" fill="black"/>
<path d="M161.735 47.4126C160.372 51.96 159.802 54.6845 156.922 56.5846C152.589 59.438 147.392 56.1853 147.373 51.3674C147.354 47.0326 149.588 40.321 154.528 39.3935C159.399 38.4788 163.098 42.8716 161.735 47.419V47.4126Z" fill="#F6D8BF"/>
<path d="M157.479 51.2708C160.679 47.535 156.679 45.6928 159.95 43.0971C156.27 43.271 150.209 43.0069 149.127 40.4691C148.046 37.9314 151.374 34.4918 154.145 34.1698C157.37 33.7962 156.654 37.7832 156.654 37.7832C156.654 37.7832 168.903 37.0167 165.012 42.2533C167.956 42.073 167.15 46.8715 162.023 50.9101C160.737 51.3738 157.479 51.2643 157.479 51.2643V51.2708Z" fill="black"/>
<path d="M164.275 42.3564C164.275 42.3564 166.797 41.6027 166.707 39.5931C167.623 40.2244 167.712 42.1438 164.275 42.3564Z" fill="black"/>
<path d="M162.483 52.1596C161.67 53.1644 160.537 53.7699 159.571 53.9438C158.118 54.2079 157.779 52.8553 158.502 51.5413C159.155 50.3561 160.697 48.7845 162.003 49.1195C163.289 49.448 163.411 51.0131 162.483 52.1661V52.1596Z" fill="#F6D8BF"/>
<path d="M154.444 47.2902C154.355 47.6638 154.086 47.9279 153.843 47.8828C153.599 47.8312 153.471 47.4899 153.555 47.1163C153.644 46.7427 153.913 46.4786 154.156 46.5237C154.399 46.5752 154.527 46.9166 154.444 47.2902Z" fill="black"/>
<path d="M150.202 46.44C150.112 46.8136 149.844 47.0776 149.6 47.0326C149.357 46.981 149.229 46.6397 149.312 46.2661C149.402 45.8925 149.671 45.6284 149.914 45.6735C150.157 45.725 150.285 46.0664 150.202 46.44Z" fill="black"/>
<path d="M151.508 46.8973C151.508 46.8973 150.145 48.8876 148.961 49.7443C149.479 50.4979 150.676 50.4399 150.676 50.4399L151.508 46.8973Z" fill="#F6D8BF"/>
<path d="M151.968 51.7603C153.472 51.8827 154.387 51.0002 154.425 50.9616C154.47 50.9165 154.47 50.8457 154.425 50.8006C154.381 50.7555 154.31 50.7555 154.265 50.8006C154.253 50.8135 153.216 51.8118 151.565 51.4769C151.501 51.464 151.443 51.5026 151.43 51.5671C151.417 51.625 151.456 51.6894 151.52 51.7023C151.673 51.7345 151.821 51.7538 151.961 51.7667L151.968 51.7603Z" fill="black"/>
<path d="M156.083 46.2532C156.122 46.2532 156.16 46.2532 156.192 46.2339C156.307 46.1824 156.352 46.0471 156.301 45.9312C155.789 44.804 154.759 44.6623 154.714 44.6558C154.599 44.6301 154.477 44.7267 154.464 44.8491C154.451 44.9714 154.535 45.0874 154.656 45.1003C154.701 45.1003 155.488 45.2291 155.891 46.1115C155.93 46.1888 156 46.2339 156.077 46.2403L156.083 46.2532Z" fill="black"/>
<path d="M149.153 43.8765C149.223 43.8958 149.3 43.8893 149.358 43.8378C150.164 43.2066 150.964 43.4514 150.97 43.4514C151.092 43.49 151.214 43.4256 151.252 43.3032C151.29 43.1873 151.226 43.0585 151.105 43.0198C151.06 43.0069 150.068 42.7042 149.076 43.4771C148.98 43.5544 148.961 43.6961 149.038 43.7927C149.063 43.8314 149.102 43.8571 149.146 43.87L149.153 43.8765Z" fill="black"/>
<path d="M167.699 66.4266L168.237 67.1608L168.717 67.8436C169.03 68.3009 169.325 68.7582 169.619 69.2155C170.208 70.1302 170.752 71.0641 171.289 72.0045C172.345 73.8917 173.318 75.8176 174.182 77.8015C174.63 78.7869 175.021 79.7982 175.424 80.803C175.782 81.8271 176.179 82.8384 176.493 83.8818C177.19 85.9365 177.696 88.0749 178.157 90.2134L178.208 90.4581C178.406 91.3663 178.208 92.2745 177.747 92.9959C176.941 94.2455 175.961 95.4242 174.835 96.4676C173.721 97.524 172.403 98.3999 171.008 99.0634C169.606 99.7204 168.109 100.133 166.617 100.287C165.869 100.364 165.12 100.377 164.384 100.326C164.013 100.3 163.641 100.255 163.27 100.197C163.085 100.165 162.899 100.126 162.707 100.087L162.061 99.9329C161.901 99.8943 161.805 99.7332 161.843 99.5722L162.726 95.8364C162.726 95.8364 162.893 95.7978 162.995 95.772L163.347 95.7011C163.584 95.6496 163.827 95.5916 164.07 95.5272C164.55 95.3984 165.017 95.2309 165.459 95.0441C166.349 94.6641 167.168 94.1875 167.885 93.6078C169.331 92.4677 170.406 90.9541 171.257 89.1957L170.848 91.9782C170.297 90.1554 169.721 88.3455 169.011 86.5677C168.32 84.79 167.545 83.0316 166.701 81.3054C165.856 79.5792 164.966 77.8723 164 76.2105C163.526 75.3732 163.021 74.5616 162.528 73.75L161.766 72.552L161.389 71.9723L161.037 71.457L160.909 71.2702C159.616 69.3572 160.109 66.7551 162.009 65.4604C163.865 64.1915 166.381 64.6424 167.699 66.4394V66.4266Z" fill="black"/>
<path d="M159.22 99.5336L157.838 101.807L163.815 101.562C163.815 101.562 165.377 97.5175 163.239 96.8799L162.414 97.1117C161.083 97.4853 159.943 98.3484 159.22 99.5336Z" fill="#F6D8BF"/>
<path d="M161.678 96.3581C161.313 96.6029 160.929 96.9571 160.59 97.4595C162.215 98.3484 164.481 101.376 164.481 101.376L165.006 99.7139C165.14 99.2759 165.083 98.8057 164.833 98.4193L163.815 96.8154C163.355 96.0876 162.388 95.8751 161.678 96.3581Z" fill="#829AF0"/>
<path d="M158.369 105.292L163.29 104.854L163.815 101.556L157.844 101.801L158.369 105.292Z" fill="#F6D8BF"/>
<path d="M97.9592 26.6531L97.6328 26.0991C98.5672 25.5388 99.5528 25.0493 100.564 24.637L100.807 25.236C99.828 25.6354 98.8744 26.1185 97.9656 26.6595L97.9592 26.6531Z" fill="#829AF0"/>
<path d="M88.6153 38.0022L88.0137 37.7832C89.5305 33.5708 92.2441 29.938 95.8601 27.2843L96.2377 27.806C92.7241 30.3824 90.0873 33.9121 88.6153 38.0086V38.0022Z" fill="#829AF0"/>
<path d="M108.93 65.1963C119.809 65.1963 128.629 56.3201 128.629 45.3708C128.629 34.4214 119.809 25.5452 108.93 25.5452C98.0501 25.5452 89.2305 34.4214 89.2305 45.3708C89.2305 56.3201 98.0501 65.1963 108.93 65.1963Z" fill="#829AF0"/>
<path opacity="0.6" d="M125.384 45.3708C125.384 54.5235 118.018 61.9371 108.93 61.9371C104.622 61.9371 100.699 60.2689 97.7679 57.5443C94.5103 54.5171 92.4688 50.1822 92.4688 45.3772C92.4688 36.2309 99.8416 28.8108 108.93 28.8108C113.749 28.8108 118.075 30.8913 121.09 34.2084C121.096 34.2084 121.109 34.2149 121.122 34.2406C123.771 37.1842 125.39 41.0875 125.39 45.3772L125.384 45.3708Z" fill="#EFF3FF"/>
<path d="M125.384 45.3708C125.384 54.5235 118.017 61.9372 108.929 61.9372C104.622 61.9372 100.699 60.2689 97.7677 57.5444C95.0541 54.5944 93.3965 50.6396 93.3965 46.3047C93.3965 37.1584 100.769 29.7383 109.857 29.7383C114.209 29.7383 118.145 31.4259 121.089 34.2084C121.096 34.2084 121.108 34.2149 121.121 34.2406C123.771 37.1842 125.39 41.0875 125.39 45.3772L125.384 45.3708Z" fill="#EFF3FF"/>
<path d="M108.929 46.3369C108.685 46.3369 108.436 46.2403 108.25 46.0535L100.225 37.9764C99.847 37.5964 99.847 36.9845 100.225 36.6109C100.602 36.2309 101.21 36.2309 101.581 36.6109L108.929 44.0053L113.172 39.7349C113.549 39.3548 114.157 39.3548 114.529 39.7349C114.906 40.1149 114.906 40.7268 114.529 41.1004L109.607 46.0535C109.421 46.2403 109.172 46.3369 108.929 46.3369Z" fill="black"/>
</g>
<defs>
<clipPath id="clip0_6208_7320">
<rect width="320" height="240" fill="white"/>
</clipPath>
</defs>
</svg>
