<svg width="94" height="98" viewBox="0 0 94 98" fill="none" xmlns="http://www.w3.org/2000/svg">
<path d="M87.3367 14.8661H66.7973V12.7153C66.7783 12.456 66.6667 12.2121 66.4828 12.0283C66.299 11.8444 66.0551 11.7328 65.7958 11.7138H56.5194V9.61224C56.4187 7.21737 55.3965 4.95405 53.6663 3.29512C51.9361 1.63619 49.6318 0.709961 47.2348 0.709961C44.8378 0.709961 42.5336 1.63619 40.8034 3.29512C39.0732 4.95405 38.051 7.21737 37.9503 9.61224V11.763H28.6739C28.4163 11.7825 28.1745 11.8947 27.9933 12.0788C27.8122 12.263 27.704 12.5067 27.6888 12.7646V14.8661H6.80464C5.13254 14.8661 3.52894 15.5303 2.34659 16.7127C1.16424 17.895 0.5 19.4987 0.5 21.1707V76.8454C0.499997 77.6726 0.663191 78.4916 0.98023 79.2556C1.29727 80.0196 1.76193 80.7135 2.34759 81.2977C2.93325 81.8818 3.62838 82.3446 4.3932 82.6597C5.15802 82.9747 5.97748 83.1358 6.80464 83.1336H39.7727V89.4383H29.3471C28.7807 89.4026 28.213 89.4834 27.6791 89.6756C27.1452 89.8678 26.6563 90.1674 26.2426 90.5558C25.8289 90.9443 25.4992 91.4134 25.2738 91.9342C25.0485 92.455 24.9322 93.0164 24.9322 93.5839C24.9322 94.1514 25.0485 94.7128 25.2738 95.2336C25.4992 95.7544 25.8289 96.2235 26.2426 96.612C26.6563 97.0005 27.1452 97.3 27.6791 97.4922C28.213 97.6845 28.7807 97.7652 29.3471 97.7295H64.6301C65.1964 97.7652 65.7641 97.6845 66.298 97.4922C66.832 97.3 67.3208 97.0005 67.7345 96.612C68.1482 96.2235 68.4779 95.7544 68.7033 95.2336C68.9287 94.7128 69.0449 94.1514 69.0449 93.5839C69.0449 93.0164 68.9287 92.455 68.7033 91.9342C68.4779 91.4134 68.1482 90.9443 67.7345 90.5558C67.3208 90.1674 66.832 89.8678 66.298 89.6756C65.7641 89.4834 65.1964 89.4026 64.6301 89.4383H54.2209V83.1336H87.1889C88.0161 83.1358 88.8355 82.9747 89.6004 82.6597C90.3652 82.3446 91.0603 81.8818 91.646 81.2977C92.2316 80.7135 92.6963 80.0196 93.0133 79.2556C93.3304 78.4916 93.4936 77.6726 93.4936 76.8454V21.22C93.5317 20.3921 93.4001 19.5652 93.1067 18.7901C92.8134 18.015 92.3646 17.3081 91.7878 16.7129C91.2111 16.1177 90.5187 15.6469 89.7532 15.3293C88.9877 15.0116 88.1653 14.854 87.3367 14.8661ZM85.4157 41.7594H74.908C74.6665 41.7905 74.4447 41.9085 74.2839 42.0913C74.1231 42.2741 74.0344 42.5092 74.0344 42.7527C74.0344 42.9961 74.1231 43.2313 74.2839 43.4141C74.4447 43.5969 74.6665 43.7149 74.908 43.746H85.4157V45.8968H74.908C74.6424 45.8968 74.3876 46.0023 74.1998 46.1901C74.012 46.3779 73.9065 46.6327 73.9065 46.8983C73.9065 47.1639 74.012 47.4187 74.1998 47.6065C74.3876 47.7943 74.6424 47.8998 74.908 47.8998H85.4157V50.0506H74.908C74.6665 50.0817 74.4447 50.1997 74.2839 50.3825C74.1231 50.5654 74.0344 50.8005 74.0344 51.044C74.0344 51.2874 74.1231 51.5225 74.2839 51.7053C74.4447 51.8882 74.6665 52.0062 74.908 52.0373H85.4157V54.2702H74.908C74.6665 54.3013 74.4447 54.4193 74.2839 54.6021C74.1231 54.7849 74.0344 55.02 74.0344 55.2635C74.0344 55.5069 74.1231 55.7421 74.2839 55.9249C74.4447 56.1077 74.6665 56.2257 74.908 56.2568H85.4157V58.4076H74.908C74.6424 58.4076 74.3876 58.5131 74.1998 58.7009C74.012 58.8888 73.9065 59.1435 73.9065 59.4091C73.9065 59.6747 74.012 59.9295 74.1998 60.1173C74.3876 60.3051 74.6424 60.4106 74.908 60.4106H85.4157V62.4793H74.908C74.6665 62.5104 74.4447 62.6284 74.2839 62.8113C74.1231 62.9941 74.0344 63.2292 74.0344 63.4726C74.0344 63.7161 74.1231 63.9512 74.2839 64.134C74.4447 64.3169 74.6665 64.4349 74.908 64.466H85.4157V68.6034H8.79127V64.466H19.2333C19.4748 64.4349 19.6967 64.3169 19.8574 64.134C20.0182 63.9512 20.1069 63.7161 20.1069 63.4726C20.1069 63.2292 20.0182 62.9941 19.8574 62.8113C19.6967 62.6284 19.4748 62.5104 19.2333 62.4793H8.79127V60.3285H19.2333C19.499 60.3285 19.7537 60.223 19.9415 60.0352C20.1294 59.8474 20.2349 59.5926 20.2349 59.327C20.2349 59.0614 20.1294 58.8067 19.9415 58.6188C19.7537 58.431 19.499 58.3255 19.2333 58.3255H8.79127V56.1747H19.2333C19.4748 56.1436 19.6967 56.0256 19.8574 55.8428C20.0182 55.66 20.1069 55.4248 20.1069 55.1814C20.1069 54.9379 20.0182 54.7028 19.8574 54.52C19.6967 54.3372 19.4748 54.2192 19.2333 54.1881H8.79127V52.0373H19.2333C19.4748 52.0062 19.6967 51.8882 19.8574 51.7053C20.0182 51.5225 20.1069 51.2874 20.1069 51.044C20.1069 50.8005 20.0182 50.5654 19.8574 50.3825C19.6967 50.1997 19.4748 50.0817 19.2333 50.0506H8.79127V47.8998H19.2333C19.499 47.8998 19.7537 47.7943 19.9415 47.6065C20.1294 47.4187 20.2349 47.1639 20.2349 46.8983C20.2349 46.6327 20.1294 46.3779 19.9415 46.1901C19.7537 46.0023 19.499 45.8968 19.2333 45.8968H8.79127V43.746H19.2333C19.4748 43.7149 19.6967 43.5969 19.8574 43.4141C20.0182 43.2313 20.1069 42.9961 20.1069 42.7527C20.1069 42.5092 20.0182 42.2741 19.8574 42.0913C19.6967 41.9085 19.4748 41.7905 19.2333 41.7594H8.79127V23.2066H27.5082V45.2401C27.5082 47.352 28.3471 49.3774 29.8405 50.8707C31.3338 52.364 33.3592 53.203 35.4711 53.203H58.6702C60.7821 53.203 62.8075 52.364 64.3008 50.8707C65.7942 49.3774 66.6331 47.352 66.6331 45.2401V23.2066H85.4157V41.7594ZM29.5933 38.7712H64.8928V45.2401C64.895 46.0247 64.7418 46.802 64.442 47.5272C64.1422 48.2523 63.7018 48.9109 63.1462 49.465C62.5906 50.0191 61.9308 50.4577 61.2048 50.7554C60.4789 51.0532 59.7011 51.2043 58.9165 51.1999H35.4711C33.902 51.1869 32.4021 50.5522 31.3002 49.435C30.1984 48.3178 29.5846 46.8092 29.5933 45.2401V38.7712ZM64.7122 36.6204H29.5933V33.4681H64.8928V36.6204H64.7122ZM39.7727 9.77641C39.8617 7.90074 40.6694 6.13136 42.0283 4.83542C43.3872 3.53948 45.1929 2.81649 47.0707 2.81649C48.9484 2.81649 50.7541 3.53948 52.113 4.83542C53.4719 6.13136 54.2796 7.90074 54.3686 9.77641V11.9272H39.7727V9.77641ZM29.5933 13.9138H37.8025V18.2319C36.9515 18.4718 36.216 19.0115 35.7319 19.7514C35.2479 20.4913 35.0479 21.3814 35.169 22.2572C35.2901 23.1331 35.724 23.9355 36.3907 24.5163C37.0573 25.0972 37.9116 25.4171 38.7958 25.4171C39.68 25.4171 40.5343 25.0972 41.2009 24.5163C41.8676 23.9355 42.3015 23.1331 42.4226 22.2572C42.5437 21.3814 42.3437 20.4913 41.8597 19.7514C41.3756 19.0115 40.6402 18.4718 39.7891 18.2319V13.9138H54.385V18.2319C53.631 18.457 52.9676 18.9149 52.4898 19.5402C52.012 20.1654 51.7444 20.9259 51.7253 21.7126C51.7208 22.3913 51.906 23.0578 52.2599 23.637C52.6138 24.2161 53.1224 24.685 53.7284 24.9907C54.3345 25.2964 55.0138 25.4268 55.6899 25.3672C56.366 25.3077 57.0121 25.0605 57.5553 24.6536C58.0986 24.2466 58.5174 23.6961 58.7646 23.0639C59.0118 22.4318 59.0776 21.7432 58.9546 21.0757C58.8315 20.4082 58.5245 19.7883 58.0682 19.2859C57.6119 18.7834 57.0243 18.4184 56.3717 18.2319V13.9138H64.5808V31.4815H29.5933V13.9138ZM38.8697 20.0543C39.1652 20.0543 39.454 20.1419 39.6997 20.3061C39.9454 20.4703 40.137 20.7036 40.25 20.9766C40.3631 21.2496 40.3927 21.55 40.335 21.8398C40.2774 22.1297 40.1351 22.3959 39.9262 22.6048C39.7172 22.8138 39.451 22.9561 39.1612 23.0137C38.8713 23.0714 38.5709 23.0418 38.2979 22.9287C38.0249 22.8156 37.7916 22.6241 37.6274 22.3784C37.4632 22.1327 37.3756 21.8439 37.3756 21.5484C37.3751 21.166 37.5211 20.7979 37.7838 20.5199C38.0465 20.242 38.4058 20.0753 38.7876 20.0543H38.8697ZM55.4358 20.0543C55.8321 20.0543 56.2121 20.2117 56.4923 20.4919C56.7725 20.7721 56.9299 21.1521 56.9299 21.5484C56.9299 21.9446 56.7725 22.3247 56.4923 22.6048C56.2121 22.885 55.8321 23.0424 55.4358 23.0424C55.0396 23.0424 54.6595 22.885 54.3793 22.6048C54.0991 22.3247 53.9417 21.9446 53.9417 21.5484C53.9417 21.1521 54.0991 20.7721 54.3793 20.4919C54.6595 20.2117 55.0396 20.0543 55.4358 20.0543ZM66.9287 93.625C66.9161 94.1958 66.6838 94.7398 66.28 95.1435C65.8763 95.5473 65.3323 95.7796 64.7614 95.7922H29.5933C29.294 95.8183 28.9924 95.7819 28.7079 95.6853C28.4234 95.5886 28.1621 95.4339 27.9406 95.2309C27.719 95.0278 27.5422 94.7809 27.4212 94.5059C27.3001 94.2309 27.2376 93.9337 27.2376 93.6332C27.2376 93.3327 27.3001 93.0354 27.4212 92.7604C27.5422 92.4854 27.719 92.2385 27.9406 92.0355C28.1621 91.8325 28.4234 91.6777 28.7079 91.5811C28.9924 91.4844 29.294 91.448 29.5933 91.4742H64.8928C65.4251 91.5427 65.9136 91.8049 66.2649 92.2107C66.6162 92.6165 66.8057 93.1375 66.7973 93.6742L66.9287 93.625ZM52.3328 89.4875H41.9071V83.1829H52.3328V89.4875ZM91.7368 76.8946C91.7156 78.0317 91.2534 79.116 90.4477 79.9187C89.642 80.7213 88.5559 81.1794 87.4188 81.1963H6.96884C5.83299 81.1753 4.74924 80.7159 3.94441 79.9142C3.13958 79.1124 2.67604 78.0304 2.6508 76.8946V21.22C2.67185 20.0814 3.13355 18.9953 3.93882 18.19C4.74409 17.3847 5.83021 16.923 6.96884 16.902H27.5082V21.0394H7.78975C7.53215 21.0588 7.29034 21.171 7.10918 21.3552C6.92802 21.5394 6.81981 21.783 6.80464 22.0409V69.7691C6.82361 70.0241 6.9335 70.2638 7.11429 70.4445C7.29508 70.6253 7.53478 70.7352 7.78975 70.7542H86.5158C86.7707 70.7352 87.0104 70.6253 87.1912 70.4445C87.372 70.2638 87.4819 70.0241 87.5009 69.7691V22.1559C87.4819 21.9009 87.372 21.6612 87.1912 21.4804C87.0104 21.2996 86.7707 21.1897 86.5158 21.1707H66.8137V17.0169H87.3531C88.5071 17.0385 89.6061 17.5144 90.4115 18.3412C91.2168 19.1681 91.6636 20.2792 91.6547 21.4334L91.7368 76.8946Z" fill="#31A5E0"/>
</svg>
