<svg width="24" height="24" viewBox="0 0 24 24" fill="none" xmlns="http://www.w3.org/2000/svg">
<path d="M11.1167 3.48722L11.1165 3.48742L2.42647 12.1764L2.42641 12.1764L2.4202 12.1828C2.39715 12.2067 2.36957 12.2257 2.33907 12.2389C2.30858 12.252 2.27578 12.2589 2.24259 12.2592C2.20939 12.2595 2.17647 12.2532 2.14574 12.2406C2.11501 12.2281 2.08709 12.2095 2.0636 12.1861C2.04012 12.1626 2.02154 12.1347 2.00896 12.104C1.99637 12.0733 1.99003 12.0403 1.9903 12.0072C1.99058 11.974 1.99746 11.9412 2.01055 11.9106C2.02363 11.8801 2.04267 11.8525 2.06653 11.8295L2.06658 11.8295L2.07256 11.8235L10.7626 3.13354L10.409 2.77999L10.7626 3.13354C10.9251 2.97104 11.118 2.84213 11.3303 2.75418C11.5426 2.66624 11.7702 2.62097 12 2.62097C12.2298 2.62097 12.4574 2.66624 12.6697 2.75418C12.882 2.84213 13.0749 2.97103 13.2374 3.13352C13.2374 3.13353 13.2374 3.13354 13.2374 3.13354L21.9264 11.8235L21.9264 11.8236L21.9328 11.8298C21.9567 11.8528 21.9758 11.8804 21.9889 11.9109C22.002 11.9414 22.0089 11.9742 22.0092 12.0074C22.0095 12.0406 22.0032 12.0735 21.9906 12.1043C21.9781 12.135 21.9595 12.1629 21.9361 12.1864C21.9126 12.2099 21.8847 12.2285 21.854 12.241C21.8233 12.2536 21.7904 12.26 21.7572 12.2597C21.724 12.2594 21.6912 12.2525 21.6607 12.2394C21.6302 12.2264 21.6026 12.2073 21.5795 12.1835L21.5795 12.1834L21.5736 12.1774L12.8836 3.48744L12.8833 3.48722C12.649 3.25313 12.3313 3.12165 12 3.12165C11.6688 3.12165 11.351 3.25313 11.1167 3.48722Z" fill="#F58220" stroke="#F58220"/>
<path d="M12 5.43201L20.159 13.591C20.189 13.621 20.219 13.649 20.25 13.677V19.875C20.25 20.91 19.41 21.75 18.375 21.75H15C14.8011 21.75 14.6103 21.671 14.4697 21.5303C14.329 21.3897 14.25 21.1989 14.25 21V16.5C14.25 16.3011 14.171 16.1103 14.0303 15.9697C13.8897 15.829 13.6989 15.75 13.5 15.75H10.5C10.3011 15.75 10.1103 15.829 9.96967 15.9697C9.82902 16.1103 9.75 16.3011 9.75 16.5V21C9.75 21.1989 9.67098 21.3897 9.53033 21.5303C9.38968 21.671 9.19891 21.75 9 21.75H5.625C5.12772 21.75 4.65081 21.5525 4.29917 21.2008C3.94754 20.8492 3.75 20.3723 3.75 19.875V13.677C3.78111 13.6492 3.81146 13.6205 3.841 13.591L12 5.43201Z" fill="#F58220"/>
</svg>
