<svg width="24" height="24" viewBox="0 0 24 24" fill="none" xmlns="http://www.w3.org/2000/svg">
<path d="M10.75 12.75V13.25H11.25H18C18.0663 13.25 18.1299 13.2763 18.1768 13.3232C18.2237 13.3701 18.25 13.4337 18.25 13.5C18.25 15.5554 17.4335 17.5267 15.9801 18.9801C14.5267 20.4335 12.5554 21.25 10.5 21.25C8.44457 21.25 6.47333 20.4335 5.01992 18.9801C3.56652 17.5267 2.75 15.5554 2.75 13.5C2.75 11.4446 3.56652 9.47333 5.01992 8.01992C6.47333 6.56652 8.44457 5.75 10.5 5.75C10.5663 5.75 10.6299 5.77634 10.6768 5.82322C10.7237 5.87011 10.75 5.9337 10.75 6V12.75Z" fill="#F58220" stroke="#F58220"/>
<path fill-rule="evenodd" clip-rule="evenodd" d="M12.75 3C12.75 2.80109 12.829 2.61032 12.9697 2.46967C13.1103 2.32902 13.3011 2.25 13.5 2.25C15.688 2.25 17.7865 3.11919 19.3336 4.66637C20.8808 6.21354 21.75 8.31196 21.75 10.5C21.75 10.6989 21.671 10.8897 21.5303 11.0303C21.3897 11.171 21.1989 11.25 21 11.25H13.5C13.3011 11.25 13.1103 11.171 12.9697 11.0303C12.829 10.8897 12.75 10.6989 12.75 10.5V3Z" fill="#F58220"/>
</svg>
