<svg width="24" height="24" viewBox="0 0 24 24" fill="none" xmlns="http://www.w3.org/2000/svg">
<path d="M15.5 19.462V17.5H13.116C12.668 17.5 12.2866 17.3427 11.972 17.028C11.6573 16.7133 11.5 16.3323 11.5 15.885V7.5H8.49998V9.462C8.49998 9.75533 8.40031 10.0017 8.20098 10.201C8.00164 10.4003 7.75498 10.5 7.46098 10.5H3.53898C3.24564 10.5 2.99931 10.4003 2.79998 10.201C2.60064 10.0017 2.50098 9.755 2.50098 9.461V4.54C2.50098 4.246 2.60064 3.99933 2.79998 3.8C2.99931 3.60067 3.24598 3.501 3.53998 3.501H7.46298C7.75631 3.501 8.00264 3.60067 8.20198 3.8C8.40131 3.99933 8.50098 4.246 8.50098 4.54V6.5H15.501V4.539C15.501 4.245 15.6006 3.99833 15.8 3.799C15.9993 3.59967 16.246 3.5 16.54 3.5H20.462C20.756 3.5 21.0026 3.59967 21.202 3.799C21.4013 3.99833 21.501 4.245 21.501 4.539V9.462C21.501 9.75533 21.4013 10.0017 21.202 10.201C21.0026 10.4003 20.756 10.5 20.462 10.5H16.54C16.246 10.5 15.9993 10.4003 15.8 10.201C15.6006 10.0017 15.501 9.755 15.501 9.461V7.5H12.501V15.885C12.501 16.0643 12.5586 16.2117 12.674 16.327C12.7893 16.4423 12.937 16.5 13.117 16.5H15.5V14.539C15.5 14.245 15.5996 13.9983 15.799 13.799C15.9983 13.5997 16.245 13.5 16.539 13.5H20.461C20.755 13.5 21.0016 13.5997 21.201 13.799C21.4003 13.9983 21.5 14.245 21.5 14.539V19.461C21.5 19.755 21.4003 20.0017 21.201 20.201C21.0016 20.4003 20.755 20.5 20.461 20.5H16.54C16.246 20.5 15.9993 20.4003 15.8 20.201C15.6006 20.0017 15.501 19.755 15.501 19.461" fill="white"/>
</svg>
