<svg width="24" height="24" viewBox="0 0 24 24" fill="none" xmlns="http://www.w3.org/2000/svg">
<path d="M16 5.91152V5.455V5.25C16 4.58696 15.7366 3.95107 15.2678 3.48223C14.7989 3.01339 14.163 2.75 13.5 2.75H10.5C9.83696 2.75 9.20107 3.01339 8.73223 3.48223C8.26339 3.95107 8 4.58696 8 5.25V5.455V5.91136L7.54554 5.95292C6.62738 6.03689 5.71181 6.14713 4.79995 6.2835L4.7998 6.28352C3.60356 6.46205 2.75 7.50644 2.75 8.706V11.739C2.75 12.7544 3.36423 13.6905 4.34377 14.0165C6.75052 14.8168 9.32428 15.25 12 15.25H12.0005C14.602 15.2526 17.187 14.8361 19.6561 14.0166L16 5.91152ZM16 5.91152L16.4546 5.95294M16 5.91152L16.4546 5.95294M16.4546 5.95294C17.3778 6.03704 18.2923 6.14788 19.2001 6.28351M16.4546 5.95294L19.2001 6.28351M19.2001 6.28351C20.3968 6.46306 21.25 7.50681 21.25 8.706M19.2001 6.28351L21.25 8.706M21.25 8.706V11.739M21.25 8.706V11.739M21.25 11.739C21.25 12.7543 20.6359 13.6904 19.6565 14.0165L21.25 11.739ZM14.9697 5.83908L15.5 5.87129V5.34V5.25C15.5 4.71957 15.2893 4.21086 14.9142 3.83579C14.5391 3.46071 14.0304 3.25 13.5 3.25H10.5C9.96957 3.25 9.46086 3.46071 9.08579 3.83579C8.71071 4.21086 8.5 4.71957 8.5 5.25V5.34V5.87129L9.03031 5.83908C11.0083 5.71895 12.9917 5.71895 14.9697 5.83908ZM12 14C12.3315 14 12.6495 13.8683 12.8839 13.6339C13.1183 13.3995 13.25 13.0815 13.25 12.75C13.25 12.4185 13.1183 12.1005 12.8839 11.8661C12.6495 11.6317 12.3315 11.5 12 11.5C11.6685 11.5 11.3505 11.6317 11.1161 11.8661C10.8817 12.1005 10.75 12.4185 10.75 12.75C10.75 13.0815 10.8817 13.3995 11.1161 13.6339C11.3505 13.8683 11.6685 14 12 14Z" fill="#F58220" stroke="#F58220"/>
<path d="M3 18.4V15.604C3.22782 15.7287 3.46646 15.8324 3.713 15.914C6.38569 16.8014 9.18385 17.2525 12 17.25C14.892 17.25 17.68 16.782 20.287 15.915C20.539 15.831 20.777 15.726 21 15.604V18.4C21 19.852 19.953 21.128 18.477 21.323C16.357 21.605 14.195 21.75 12 21.75C9.83395 21.7504 7.67024 21.6078 5.523 21.323C4.047 21.128 3 19.852 3 18.4Z" fill="#F58220"/>
</svg>
