<svg width="22" height="20" viewBox="0 0 22 20" fill="none" xmlns="http://www.w3.org/2000/svg">
<path d="M3.92053 1.26571L3.92061 1.2657C6.26465 0.921638 8.63069 0.749279 10.9998 0.750002H11C13.4054 0.750002 15.7681 0.926188 18.0792 1.26467C19.7938 1.5179 21 3.02341 21 4.74V10.76C21 12.4766 19.7939 13.982 18.0793 14.2353C16.938 14.4026 15.7911 14.5289 14.6408 14.6142C14.5066 14.6234 14.3762 14.6629 14.2595 14.7297C14.142 14.797 14.0415 14.8901 13.9654 15.002L13.9654 15.002L13.963 15.0057L11.208 19.1386C11.208 19.1386 11.208 19.1387 11.208 19.1387C11.1851 19.1729 11.1542 19.2009 11.118 19.2203C11.0817 19.2398 11.0412 19.2499 11 19.2499C10.9588 19.2499 10.9183 19.2398 10.882 19.2203C10.8458 19.2009 10.8149 19.1729 10.792 19.1387C10.792 19.1387 10.792 19.1386 10.792 19.1386L8.03704 15.0057L8.03706 15.0057L8.03459 15.002C7.95854 14.8901 7.85797 14.797 7.74053 14.7297C7.62381 14.6629 7.49347 14.6235 7.35932 14.6142C6.20893 14.5286 5.06197 14.4019 3.92064 14.2343L3.92053 14.2343C2.20657 13.983 1 12.4761 1 10.759V4.741C1 3.02392 2.20657 1.517 3.92053 1.26571ZM5.61612 5.36612C5.3817 5.60054 5.25 5.91848 5.25 6.25C5.25 6.58152 5.3817 6.89947 5.61612 7.13389C5.85054 7.36831 6.16848 7.5 6.5 7.5H15.5C15.8315 7.5 16.1495 7.36831 16.3839 7.13389C16.6183 6.89946 16.75 6.58152 16.75 6.25C16.75 5.91848 16.6183 5.60054 16.3839 5.36612C16.1495 5.1317 15.8315 5 15.5 5H6.5C6.16848 5 5.85054 5.1317 5.61612 5.36612ZM6.5 8C6.16848 8 5.85054 8.1317 5.61612 8.36612C5.3817 8.60054 5.25 8.91848 5.25 9.25C5.25 9.58152 5.3817 9.89946 5.61612 10.1339C5.85054 10.3683 6.16848 10.5 6.5 10.5H11C11.3315 10.5 11.6495 10.3683 11.8839 10.1339C12.1183 9.89946 12.25 9.58152 12.25 9.25C12.25 8.91848 12.1183 8.60054 11.8839 8.36612C11.6495 8.1317 11.3315 8 11 8H6.5Z" fill="#F58220" stroke="#F58220"/>
</svg>
