<svg width="24" height="24" viewBox="0 0 24 24" fill="none" xmlns="http://www.w3.org/2000/svg">
<path d="M17.7751 20.4749C17.7835 20.4833 17.792 20.4917 17.8005 20.5H5.25C4.58696 20.5 3.95107 20.2366 3.48223 19.7678C3.01339 19.2989 2.75 18.663 2.75 18V4.875C2.75 4.11597 3.36532 3.5 4.125 3.5H15.375C16.134 3.5 16.75 4.11532 16.75 4.875V18C16.75 18.9283 17.1187 19.8185 17.7751 20.4749ZM12 9.25C11.6685 9.25 11.3505 9.3817 11.1161 9.61612C10.8817 9.85054 10.75 10.1685 10.75 10.5C10.75 10.8315 10.8817 11.1495 11.1161 11.3839C11.3505 11.6183 11.6685 11.75 12 11.75H13.5C13.8315 11.75 14.1495 11.6183 14.3839 11.3839C14.6183 11.1495 14.75 10.8315 14.75 10.5C14.75 10.1685 14.6183 9.85054 14.3839 9.61612C14.1495 9.3817 13.8315 9.25 13.5 9.25H12ZM11.1161 6.61612C10.8817 6.85054 10.75 7.16848 10.75 7.5C10.75 7.83152 10.8817 8.14946 11.1161 8.38388C11.3505 8.6183 11.6685 8.75 12 8.75H13.5C13.8315 8.75 14.1495 8.6183 14.3839 8.38388C14.6183 8.14946 14.75 7.83152 14.75 7.5C14.75 7.16848 14.6183 6.85054 14.3839 6.61612C14.1495 6.3817 13.8315 6.25 13.5 6.25H12C11.6685 6.25 11.3505 6.3817 11.1161 6.61612ZM6 12.25C5.66848 12.25 5.35054 12.3817 5.11612 12.6161C4.8817 12.8505 4.75 13.1685 4.75 13.5C4.75 13.8315 4.8817 14.1495 5.11612 14.3839C5.35054 14.6183 5.66848 14.75 6 14.75H13.5C13.8315 14.75 14.1495 14.6183 14.3839 14.3839C14.6183 14.1495 14.75 13.8315 14.75 13.5C14.75 13.1685 14.6183 12.8505 14.3839 12.6161C14.1495 12.3817 13.8315 12.25 13.5 12.25H6ZM5.11612 15.6161C4.8817 15.8505 4.75 16.1685 4.75 16.5C4.75 16.8315 4.8817 17.1495 5.11612 17.3839C5.35054 17.6183 5.66848 17.75 6 17.75H13.5C13.8315 17.75 14.1495 17.6183 14.3839 17.3839C14.6183 17.1495 14.75 16.8315 14.75 16.5C14.75 16.1685 14.6183 15.8505 14.3839 15.6161C14.1495 15.3817 13.8315 15.25 13.5 15.25H6C5.66848 15.25 5.35054 15.3817 5.11612 15.6161ZM6 6.25C5.66848 6.25 5.35054 6.3817 5.11612 6.61612C4.8817 6.85054 4.75 7.16848 4.75 7.5V10.5C4.75 11.1901 5.30986 11.75 6 11.75H9C9.33152 11.75 9.64946 11.6183 9.88388 11.3839C10.1183 11.1495 10.25 10.8315 10.25 10.5V7.5C10.25 7.16848 10.1183 6.85054 9.88388 6.61612C9.64946 6.3817 9.33152 6.25 9 6.25H6Z" fill="#F58220" stroke="#F58220"/>
<path d="M18.75 6.75H20.625C21.246 6.75 21.75 7.254 21.75 7.875V18C21.75 18.3978 21.592 18.7794 21.3107 19.0607C21.0294 19.342 20.6478 19.5 20.25 19.5C19.8522 19.5 19.4706 19.342 19.1893 19.0607C18.908 18.7794 18.75 18.3978 18.75 18V6.75Z" fill="#F58220"/>
</svg>
