<svg width="14" height="17" viewBox="0 0 14 17" fill="none" xmlns="http://www.w3.org/2000/svg">
<path d="M0 16.4616V11.9996C0 11.5396 0.154333 11.1552 0.463 10.8466C0.771667 10.5379 1.156 10.3839 1.616 10.3846H12.385C12.845 10.3846 13.2293 10.5386 13.538 10.8466C13.8467 11.1546 14.0007 11.5389 14 11.9996V16.4616H0ZM1 13.4616H13V11.9996C13 11.8462 12.936 11.7052 12.808 11.5766C12.68 11.4479 12.5387 11.3839 12.384 11.3846H1.616C1.462 11.3846 1.32067 11.4486 1.192 11.5766C1.06333 11.7046 0.999333 11.8456 1 11.9996V13.4616ZM7 10.3846L3 4.96155V4.76855C3 3.65455 3.38833 2.70955 4.165 1.93355C4.941 1.15689 5.886 0.768555 7 0.768555C8.114 0.768555 9.05933 1.15689 9.836 1.93355C10.6127 2.71022 11.0007 3.65522 11 4.76855V4.96055L7 10.3846ZM7 8.83455L10 4.76855C10 3.93522 9.70833 3.22689 9.125 2.64355C8.54167 2.06022 7.83333 1.76889 7 1.76955C6.16667 1.77022 5.45833 2.06189 4.875 2.64455C4.29167 3.22722 4 3.93555 4 4.76955L7 8.83455Z" fill="black"/>
</svg>
