<svg width="72" height="44" viewBox="0 0 72 44" fill="none" xmlns="http://www.w3.org/2000/svg">
<path d="M36.4989 43.9996C36.4989 43.9996 69.9872 34.7926 71.7022 1.03345C71.7022 1.03345 68.7234 13.2192 56.5378 12.4068C44.352 11.5944 38.3945 15.5661 35.0547 22.9678C35.0547 22.9678 44.5326 13.3997 49.7678 20.982C55.0031 28.5642 36.4989 43.9996 36.4989 43.9996Z" fill="#E83A33"/>
<path d="M36.4988 43.9995C36.4988 43.9995 20.883 42.2845 9.50968 28.2032C-1.8636 14.1218 11.4052 9.78911 22.3273 13.5803C33.2494 17.3715 35.0546 22.9678 35.0546 22.9678C35.0546 22.9678 29.8971 18.2726 23.2175 19.7168C16.538 21.161 18.2407 29.6896 24.469 35.1957C30.6973 40.7019 36.4988 43.9995 36.4988 43.9995Z" fill="#E83A33"/>
<path d="M7.96818 7.69555C8.77885 10.2103 7.78203 12.782 5.74188 13.4398C3.70162 14.0975 1.39052 12.5921 0.579853 10.0773C-0.230813 7.56262 0.76589 4.99086 2.80615 4.33315C4.84641 3.67543 7.15751 5.18083 7.96818 7.69555Z" fill="#E83A33"/>
<path d="M58.8242 10.2976C60.8645 9.63991 61.8613 7.06811 61.0507 4.5533C60.2401 2.03849 57.929 0.532984 55.8887 1.19065C53.8483 1.84832 52.8515 4.42012 53.6621 6.93493C54.4727 9.44974 56.7838 10.9553 58.8242 10.2976Z" fill="#E83A33"/>
</svg>
