<svg width="23" height="23" viewBox="0 0 23 23" fill="none" xmlns="http://www.w3.org/2000/svg">
<g clip-path="url(#clip0_2563_5217)">
<path d="M18.9956 5.35451C18.9956 4.59107 18.3768 3.97461 17.6162 3.97461C16.8556 3.97461 16.2363 4.59107 16.2363 5.35451C16.2363 6.11515 16.8556 6.73158 17.6162 6.73158C18.3768 6.73158 18.9956 6.11515 18.9956 5.35451Z" fill="#E83A33"/>
<path d="M20.8336 16.1262C20.7825 17.2462 20.5952 17.8547 20.4397 18.2588C20.2307 18.7947 19.9816 19.1778 19.5774 19.5797C19.1778 19.9816 18.7947 20.2302 18.2588 20.4368C17.8547 20.5946 17.2439 20.7825 16.124 20.8359C14.9133 20.8892 14.5545 20.9006 11.4842 20.9006C8.41679 20.9006 8.05517 20.8892 6.84444 20.8359C5.72455 20.7825 5.1166 20.5946 4.71242 20.4368C4.17376 20.2302 3.79346 19.9816 3.39158 19.5797C2.98685 19.1778 2.73768 18.7947 2.53163 18.2588C2.37607 17.8547 2.18594 17.2462 2.13766 16.1262C2.07866 14.9155 2.06785 14.5511 2.06785 11.4871C2.06785 8.41677 2.07866 8.05518 2.13766 6.84441C2.18594 5.72452 2.37607 5.11661 2.53163 4.70903C2.73768 4.17376 2.98685 3.79287 3.39158 3.39099C3.79346 2.9897 4.17376 2.74049 4.71242 2.53163C5.1166 2.37326 5.72455 2.1882 6.84444 2.13486C8.05517 2.08147 8.41679 2.06785 11.4842 2.06785C14.5545 2.06785 14.9133 2.08147 16.124 2.13486C17.2439 2.1882 17.8547 2.37326 18.2588 2.53163C18.7947 2.74049 19.1778 2.9897 19.5774 3.39099C19.9816 3.79287 20.2307 4.17376 20.4397 4.70903C20.5952 5.11661 20.7825 5.72452 20.8336 6.84441C20.8898 8.05518 20.9034 8.41677 20.9034 11.4871C20.9034 14.5511 20.8898 14.9155 20.8336 16.1262ZM22.9015 6.75021C22.8453 5.52639 22.6522 4.69029 22.3656 3.96204C22.0739 3.20652 21.6828 2.56624 21.0425 1.92595C20.405 1.28853 19.7648 0.89742 19.0092 0.602266C18.2782 0.31844 17.4449 0.123161 16.2205 0.0698188C14.9961 0.0107713 14.605 0 11.4842 0C8.36623 0 7.97234 0.0107713 6.74796 0.0698188C5.52642 0.123161 4.69368 0.31844 3.9592 0.602266C3.20652 0.89742 2.56624 1.28853 1.92881 1.92595C1.28853 2.56624 0.897418 3.20652 0.60282 3.96204C0.318992 4.69029 0.126013 5.52639 0.0669658 6.75021C0.013623 7.9746 0 8.36624 0 11.4871C0 14.6051 0.013623 14.9961 0.0669658 16.2205C0.126013 17.442 0.318992 18.2776 0.60282 19.0093C0.897418 19.7619 1.28853 20.4051 1.92881 21.0425C2.56624 21.6799 3.20652 22.0739 3.9592 22.3685C4.69368 22.6523 5.52642 22.8453 6.74796 22.9015C7.97234 22.9577 8.36623 22.9713 11.4842 22.9713C14.605 22.9713 14.9961 22.9577 16.2205 22.9015C17.4449 22.8453 18.2782 22.6523 19.0092 22.3685C19.7648 22.0739 20.405 21.6799 21.0425 21.0425C21.6828 20.4051 22.0739 19.7619 22.3656 19.0093C22.6522 18.2776 22.8453 17.442 22.9015 16.2205C22.9577 14.9961 22.9713 14.6051 22.9713 11.4871C22.9713 8.36624 22.9577 7.9746 22.9015 6.75021Z" fill="#E83A33"/>
<path d="M11.4843 15.3128C9.37102 15.3128 7.65623 13.6008 7.65623 11.4875C7.65623 9.37082 9.37102 7.65663 11.4843 7.65663C13.5982 7.65663 15.3152 9.37082 15.3152 11.4875C15.3152 13.6008 13.5982 15.3128 11.4843 15.3128ZM11.4843 5.58594C8.2267 5.58594 5.58838 8.2299 5.58838 11.4875C5.58838 14.7423 8.2267 17.3835 11.4843 17.3835C14.7419 17.3835 17.3831 14.7423 17.3831 11.4875C17.3831 8.2299 14.7419 5.58594 11.4843 5.58594Z" fill="#E83A33"/>
</g>
<defs>
<clipPath id="clip0_2563_5217">
<rect width="23" height="23" fill="white"/>
</clipPath>
</defs>
</svg>
