<svg width="24" height="24" viewBox="0 0 24 24" fill="none" xmlns="http://www.w3.org/2000/svg">
<path d="M5.25 16.5C4.1889 16.5 3.6588 16.5 3.3294 16.8294C3 17.1588 3 17.6898 3 18.75C3 19.8102 3 20.3412 3.3294 20.6706C3.6588 21 4.1889 21 5.25 21C6.3111 21 6.8412 21 7.1706 20.6706C7.5 20.3412 7.5 19.8102 7.5 18.75C7.5 17.6898 7.5 17.1588 7.1706 16.8294C6.8412 16.5 6.3111 16.5 5.25 16.5ZM5.25 16.5L9.75 12.9M18.75 16.5C17.6898 16.5 17.1588 16.5 16.8294 16.8294C16.5 17.1588 16.5 17.6898 16.5 18.75C16.5 19.8102 16.5 20.3412 16.8294 20.6706C17.1588 21 17.6898 21 18.75 21C19.8102 21 20.3412 21 20.6706 20.6706C21 20.3412 21 19.8102 21 18.75C21 17.6898 21 17.1588 20.6706 16.8294C20.3412 16.5 19.8102 16.5 18.75 16.5ZM18.75 16.5L14.25 12.9M12 10.2C11.4033 10.2 10.831 10.4371 10.409 10.859C9.98705 11.281 9.75 11.8533 9.75 12.45C9.75 13.0467 9.98705 13.619 10.409 14.041C10.831 14.4629 11.4033 14.7 12 14.7C12.5967 14.7 13.169 14.4629 13.591 14.041C14.0129 13.619 14.25 13.0467 14.25 12.45C14.25 11.8533 14.0129 11.281 13.591 10.859C13.169 10.4371 12.5967 10.2 12 10.2ZM12 10.2V7.5M10.2 3H13.8C15.4335 3 15.6 3.8325 15.6 5.25C15.6 6.6675 15.4335 7.5 13.8 7.5H10.2C8.5665 7.5 8.4 6.6675 8.4 5.25C8.4 3.8325 8.5665 3 10.2 3Z" stroke="#F58220" stroke-width="1.5" stroke-linecap="round" stroke-linejoin="round"/>
</svg>
