<svg width="12" height="12" viewBox="0 0 12 12" fill="none" xmlns="http://www.w3.org/2000/svg">
<path d="M7.875 5.25L10.235 2.89C10.2874 2.83762 10.3542 2.80196 10.4269 2.78752C10.4996 2.77308 10.575 2.7805 10.6435 2.80886C10.7119 2.83721 10.7705 2.88523 10.8117 2.94683C10.8529 3.00844 10.8749 3.08088 10.875 3.155V8.845C10.8749 8.91912 10.8529 8.99156 10.8117 9.05317C10.7705 9.11477 10.7119 9.16279 10.6435 9.19114C10.575 9.2195 10.4996 9.22692 10.4269 9.21248C10.3542 9.19804 10.2874 9.16238 10.235 9.11L7.875 6.75M2.25 9.375H6.75C7.04837 9.375 7.33452 9.25647 7.5455 9.0455C7.75647 8.83452 7.875 8.54837 7.875 8.25V3.75C7.875 3.45163 7.75647 3.16548 7.5455 2.9545C7.33452 2.74353 7.04837 2.625 6.75 2.625H2.25C1.95163 2.625 1.66548 2.74353 1.4545 2.9545C1.24353 3.16548 1.125 3.45163 1.125 3.75V8.25C1.125 8.54837 1.24353 8.83452 1.4545 9.0455C1.66548 9.25647 1.95163 9.375 2.25 9.375Z" stroke="#2D8D00" stroke-linecap="round" stroke-linejoin="round"/>
</svg>
