<svg width="46" height="32" viewBox="0 0 46 32" fill="none" xmlns="http://www.w3.org/2000/svg">
<g clip-path="url(#clip0_504_23293)">
<path d="M44.506 4.99111C44.2449 4.02641 43.7357 3.14692 43.0291 2.44023C42.3224 1.73353 41.4429 1.22429 40.4783 0.9632C36.9465 0 22.7325 0 22.7325 0C22.7325 0 8.51772 0.0291555 4.98599 0.992356C4.02128 1.25346 3.1418 1.76273 2.43513 2.46946C1.72847 3.17619 1.21927 4.05571 0.958256 5.02044C-0.11001 11.2956 -0.52441 20.8576 0.98759 26.8818C1.24863 27.8465 1.75784 28.726 2.4645 29.4327C3.17117 30.1394 4.05063 30.6486 5.01532 30.9097C8.54706 31.8729 22.7615 31.8729 22.7615 31.8729C22.7615 31.8729 36.9757 31.8729 40.5072 30.9097C41.472 30.6486 42.3515 30.1394 43.0582 29.4327C43.7649 28.726 44.2741 27.8465 44.5351 26.8818C45.6619 20.5977 46.0091 11.0416 44.506 4.99111Z" fill="#FF0000"/>
<path d="M18.208 22.7662L29.9997 15.9363L18.208 9.10645V22.7662Z" fill="white"/>
</g>
<defs>
<clipPath id="clip0_504_23293">
<rect width="45.5111" height="32" fill="white"/>
</clipPath>
</defs>
</svg>
