<svg width="24" height="24" viewBox="0 0 24 24" fill="none" xmlns="http://www.w3.org/2000/svg">
<path fill-rule="evenodd" clip-rule="evenodd" d="M2.3999 10.2C2.3999 10.0409 2.46312 9.88825 2.57564 9.77572C2.68816 9.6632 2.84077 9.59999 2.9999 9.59999H16.5695C16.7286 9.59999 16.8812 9.6632 16.9938 9.77572C17.1063 9.88825 17.1695 10.0409 17.1695 10.2C17.1695 10.3591 17.1063 10.5117 16.9938 10.6243C16.8812 10.7368 16.7286 10.8 16.5695 10.8H2.9999C2.84077 10.8 2.68816 10.7368 2.57564 10.6243C2.46312 10.5117 2.3999 10.3591 2.3999 10.2ZM2.3999 5.39999C2.3999 5.24086 2.46312 5.08825 2.57564 4.97572C2.68816 4.8632 2.84077 4.79999 2.9999 4.79999H20.9999C21.159 4.79999 21.3116 4.8632 21.4242 4.97572C21.5367 5.08825 21.5999 5.24086 21.5999 5.39999C21.5999 5.55912 21.5367 5.71173 21.4242 5.82425C21.3116 5.93677 21.159 5.99999 20.9999 5.99999H2.9999C2.84077 5.99999 2.68816 5.93677 2.57564 5.82425C2.46312 5.71173 2.3999 5.55912 2.3999 5.39999ZM2.3999 15C2.3999 14.8409 2.46312 14.6882 2.57564 14.5757C2.68816 14.4632 2.84077 14.4 2.9999 14.4H20.9999C21.159 14.4 21.3116 14.4632 21.4242 14.5757C21.5367 14.6882 21.5999 14.8409 21.5999 15C21.5999 15.1591 21.5367 15.3117 21.4242 15.4243C21.3116 15.5368 21.159 15.6 20.9999 15.6H2.9999C2.84077 15.6 2.68816 15.5368 2.57564 15.4243C2.46312 15.3117 2.3999 15.1591 2.3999 15ZM2.3999 19.8C2.3999 19.6409 2.46312 19.4882 2.57564 19.3757C2.68816 19.2632 2.84077 19.2 2.9999 19.2H16.5695C16.7286 19.2 16.8812 19.2632 16.9938 19.3757C17.1063 19.4882 17.1695 19.6409 17.1695 19.8C17.1695 19.9591 17.1063 20.1117 16.9938 20.2243C16.8812 20.3368 16.7286 20.4 16.5695 20.4H2.9999C2.84077 20.4 2.68816 20.3368 2.57564 20.2243C2.46312 20.1117 2.3999 19.9591 2.3999 19.8Z" fill="black"/>
</svg>
