<svg width="24" height="24" viewBox="0 0 24 24" fill="none" xmlns="http://www.w3.org/2000/svg">
<path d="M6.75 2.99414V5.24414M17.25 2.99414V5.24414M2.998 18.7441V7.49114C2.998 6.8944 3.23505 6.32211 3.65701 5.90015C4.07897 5.47819 4.65126 5.24114 5.248 5.24114H18.748C19.3447 5.24114 19.917 5.47819 20.339 5.90015C20.7609 6.32211 20.998 6.8944 20.998 7.49114V18.7421M20.998 18.7421C20.998 19.3389 20.7609 19.9112 20.339 20.3331C19.917 20.7551 19.3447 20.9921 18.748 20.9921H5.248C4.65126 20.9921 4.07897 20.7551 3.65701 20.3331C3.23505 19.9112 2.998 19.3389 2.998 18.7421V11.2421C2.998 10.6454 3.23505 10.0731 3.65701 9.65115C4.07897 9.22919 4.65126 8.99214 5.248 8.99214H18.748C19.3447 8.99214 19.917 9.22919 20.339 9.65115C20.7609 10.0731 20.998 10.6454 20.998 11.2421V18.7421ZM14.248 12.7421H16.498M7.498 14.9921H11.998M12 12.7421H12.005V12.7481H12V12.7421ZM11.999 17.2421H12.005V17.2481H11.999V17.2421ZM9.749 17.2431H9.754V17.2491H9.75V17.2431H9.749ZM7.499 17.2431H7.504V17.2481H7.498V17.2431H7.499ZM14.249 14.9961H14.254V15.0011H14.249V14.9961ZM14.249 17.2431H14.255V17.2491H14.249V17.2431ZM16.499 14.9951H16.505V15.0001H16.5L16.499 14.9951Z" stroke="#F58220" stroke-width="1.5" stroke-linecap="round" stroke-linejoin="round"/>
</svg>
