<svg width="24" height="24" viewBox="0 0 24 24" fill="none" xmlns="http://www.w3.org/2000/svg">
<mask id="mask0_176_1985" style="mask-type:alpha" maskUnits="userSpaceOnUse" x="0" y="0" width="24" height="24">
<rect width="24" height="24" fill="#D9D9D9"/>
</mask>
<g mask="url(#mask0_176_1985)">
<path d="M6 21.5001C5.30133 21.5001 4.71 21.2581 4.226 20.7741C3.742 20.2901 3.5 19.7003 3.5 19.0046V16.5001H6.5V2.69238L7.88475 3.88488L9.2885 2.69238L10.6923 3.88488L12.0963 2.69238L13.5 3.88488L14.9038 2.69238L16.3077 3.88488L17.7115 2.69238L19.1152 3.88488L20.5 2.69238V19.0001C20.5 19.6988 20.258 20.2901 19.774 20.7741C19.29 21.2581 18.6987 21.5001 18 21.5001H6ZM18 20.0001C18.2833 20.0001 18.5208 19.9043 18.7125 19.7126C18.9042 19.521 19 19.2835 19 19.0001V5.00013H8V16.5001H17V19.0001C17 19.2835 17.0958 19.521 17.2875 19.7126C17.4792 19.9043 17.7167 20.0001 18 20.0001ZM9.19225 8.75013V7.25013H14.8652V8.75013H9.19225ZM9.19225 11.7501V10.2501H14.8652V11.7501H9.19225ZM16.9423 8.88463C16.6974 8.88463 16.4888 8.79847 16.3163 8.62613C16.1439 8.45363 16.0577 8.24497 16.0577 8.00013C16.0577 7.7553 16.1439 7.54663 16.3163 7.37413C16.4888 7.2018 16.6974 7.11563 16.9423 7.11563C17.1871 7.11563 17.3958 7.2018 17.5682 7.37413C17.7407 7.54663 17.827 7.7553 17.827 8.00013C17.827 8.24497 17.7407 8.45363 17.5682 8.62613C17.3958 8.79847 17.1871 8.88463 16.9423 8.88463ZM16.9423 11.8846C16.6974 11.8846 16.4888 11.7985 16.3163 11.6261C16.1439 11.4536 16.0577 11.245 16.0577 11.0001C16.0577 10.7553 16.1439 10.5466 16.3163 10.3741C16.4888 10.2018 16.6974 10.1156 16.9423 10.1156C17.1871 10.1156 17.3958 10.2018 17.5682 10.3741C17.7407 10.5466 17.827 10.7553 17.827 11.0001C17.827 11.245 17.7407 11.4536 17.5682 11.6261C17.3958 11.7985 17.1871 11.8846 16.9423 11.8846ZM6 20.0001H15.5V18.0001H5V19.0001C5 19.2835 5.09583 19.521 5.2875 19.7126C5.47917 19.9043 5.71667 20.0001 6 20.0001Z" fill="#F58220"/>
</g>
</svg>
