<svg width="26" height="26" viewBox="0 0 26 26" fill="none" xmlns="http://www.w3.org/2000/svg">
<path d="M16.0951 18.5055C18.1136 18.2665 20.0968 17.7902 22.0036 17.0863C20.3888 15.2975 19.4965 12.9724 19.5 10.5625V9.75C19.5 8.02609 18.8152 6.37279 17.5962 5.15381C16.3772 3.93482 14.7239 3.25 13 3.25C11.2761 3.25 9.62282 3.93482 8.40383 5.15381C7.18485 6.37279 6.50003 8.02609 6.50003 9.75V10.5625C6.5033 12.9725 5.6106 15.2977 3.99536 17.0863C5.87278 17.7797 7.85203 18.2618 9.90494 18.5055M16.0951 18.5055C14.0389 18.7494 11.9611 18.7494 9.90494 18.5055M16.0951 18.5055C16.2512 18.9929 16.29 19.5102 16.2084 20.0154C16.1268 20.5206 15.927 20.9993 15.6254 21.4127C15.3237 21.8261 14.9287 22.1624 14.4725 22.3942C14.0163 22.6261 13.5118 22.7469 13 22.7469C12.4883 22.7469 11.9838 22.6261 11.5276 22.3942C11.0714 22.1624 10.6764 21.8261 10.3747 21.4127C10.073 20.9993 9.87327 20.5206 9.79164 20.0154C9.71001 19.5102 9.74883 18.9929 9.90494 18.5055" stroke="black" stroke-width="1.5" stroke-linecap="round" stroke-linejoin="round"/>
</svg>
