<svg width="24" height="24" viewBox="0 0 24 24" fill="none" xmlns="http://www.w3.org/2000/svg">
<path d="M10.49 2.22957L5.5 4.09957C4.35 4.52957 3.41 5.88955 3.41 7.11955V14.5495C3.41 15.7295 4.19001 17.2795 5.14001 17.9895L9.44 21.1996C10.85 22.2596 13.17 22.2596 14.58 21.1996L18.88 17.9895C19.83 17.2795 20.61 15.7295 20.61 14.5495V7.11955C20.61 5.88955 19.67 4.52957 18.52 4.09957L13.53 2.22957C12.68 1.91957 11.32 1.91957 10.49 2.22957Z" stroke="#F58220" stroke-width="1.5" stroke-linecap="round" stroke-linejoin="round"/>
<path d="M12 10.9204C11.96 10.9204 11.91 10.9204 11.87 10.9204C10.93 10.8904 10.18 10.1104 10.18 9.1604C10.18 8.1904 10.97 7.40039 11.94 7.40039C12.91 7.40039 13.7 8.1904 13.7 9.1604C13.69 10.1204 12.94 10.8904 12 10.9204Z" stroke="#F58220" stroke-width="1.5" stroke-linecap="round" stroke-linejoin="round"/>
<path d="M10.01 13.7204C9.05001 14.3604 9.05001 15.4103 10.01 16.0503C11.1 16.7803 12.89 16.7803 13.98 16.0503C14.94 15.4103 14.94 14.3604 13.98 13.7204C12.9 12.9904 11.11 12.9904 10.01 13.7204Z" stroke="#F58220" stroke-width="1.5" stroke-linecap="round" stroke-linejoin="round"/>
</svg>
