<svg width="70" height="70" viewBox="0 0 70 70" fill="none" xmlns="http://www.w3.org/2000/svg">
<rect x="0.5" y="0.5" width="69" height="69" rx="34.5" fill="#F58220" fill-opacity="0.1"/>
<rect x="0.5" y="0.5" width="69" height="69" rx="34.5" stroke="#F58220"/>
<path d="M36.1667 45.5V43.1667H38.5V45.5H36.1667ZM33.8333 43.1667V37.3333H36.1667V43.1667H33.8333ZM43.1667 39.6667V35H45.5V39.6667H43.1667ZM40.8333 35V32.6667H43.1667V35H40.8333ZM26.8333 37.3333V35H29.1667V37.3333H26.8333ZM24.5 35V32.6667H26.8333V35H24.5ZM35 26.8333V24.5H37.3333V26.8333H35ZM26.25 29.75H29.75V26.25H26.25V29.75ZM24.5 31.5V24.5H31.5V31.5H24.5ZM26.25 43.75H29.75V40.25H26.25V43.75ZM24.5 45.5V38.5H31.5V45.5H24.5ZM40.25 29.75H43.75V26.25H40.25V29.75ZM38.5 31.5V24.5H45.5V31.5H38.5ZM40.8333 45.5V42H38.5V39.6667H43.1667V43.1667H45.5V45.5H40.8333ZM36.1667 37.3333V35H40.8333V37.3333H36.1667ZM31.5 37.3333V35H29.1667V32.6667H36.1667V35H33.8333V37.3333H31.5ZM32.6667 31.5V26.8333H35V29.1667H37.3333V31.5H32.6667ZM27.125 28.875V27.125H28.875V28.875H27.125ZM27.125 42.875V41.125H28.875V42.875H27.125ZM41.125 28.875V27.125H42.875V28.875H41.125Z" fill="#F58220"/>
</svg>
