<svg width="70" height="70" viewBox="0 0 70 70" fill="none" xmlns="http://www.w3.org/2000/svg">
<rect x="0.5" y="0.5" width="69" height="69" rx="34.5" fill="#F58220" fill-opacity="0.1"/>
<rect x="0.5" y="0.5" width="69" height="69" rx="34.5" stroke="#F58220"/>
<path d="M41 45C40.1667 45 39.4583 44.7083 38.875 44.125C38.2917 43.5417 38 42.8333 38 42C38 41.8833 38.0083 41.7623 38.025 41.637C38.0417 41.5123 38.0667 41.4 38.1 41.3L31.05 37.2C30.7667 37.45 30.45 37.6457 30.1 37.787C29.75 37.929 29.3833 38 29 38C28.1667 38 27.4583 37.7083 26.875 37.125C26.2917 36.5417 26 35.8333 26 35C26 34.1667 26.2917 33.4583 26.875 32.875C27.4583 32.2917 28.1667 32 29 32C29.3833 32 29.75 32.0707 30.1 32.212C30.45 32.354 30.7667 32.55 31.05 32.8L38.1 28.7C38.0667 28.6 38.0417 28.4877 38.025 28.363C38.0083 28.2377 38 28.1167 38 28C38 27.1667 38.2917 26.4583 38.875 25.875C39.4583 25.2917 40.1667 25 41 25C41.8333 25 42.5417 25.2917 43.125 25.875C43.7083 26.4583 44 27.1667 44 28C44 28.8333 43.7083 29.5417 43.125 30.125C42.5417 30.7083 41.8333 31 41 31C40.6167 31 40.25 30.929 39.9 30.787C39.55 30.6457 39.2333 30.45 38.95 30.2L31.9 34.3C31.9333 34.4 31.9583 34.5123 31.975 34.637C31.9917 34.7623 32 34.8833 32 35C32 35.1167 31.9917 35.2373 31.975 35.362C31.9583 35.4873 31.9333 35.6 31.9 35.7L38.95 39.8C39.2333 39.55 39.55 39.354 39.9 39.212C40.25 39.0707 40.6167 39 41 39C41.8333 39 42.5417 39.2917 43.125 39.875C43.7083 40.4583 44 41.1667 44 42C44 42.8333 43.7083 43.5417 43.125 44.125C42.5417 44.7083 41.8333 45 41 45Z" fill="#F58220"/>
</svg>
