<svg xmlns="http://www.w3.org/2000/svg" width="24" height="24" fill="none" viewBox="0 0 24 24" id="whatsapp-business"><path fill="#000" fill-rule="evenodd" d="M12 2C6.47718 2 2.00003 6.47715 2.00003 12C2.00003 13.7931 2.47283 15.4784 3.30088 16.9352L2.05134 20.6838C1.93157 21.0431 2.02509 21.4393 2.29292 21.7071C2.56075 21.9749 2.95692 22.0685 3.31625 21.9487L7.06485 20.6992C8.52163 21.5272 10.2069 22 12 22C17.5229 22 22 17.5228 22 12C22 6.47715 17.5229 2 12 2ZM8.5 7C8.5 6.44772 8.94772 6 9.5 6H13C14.933 6 16.5 7.567 16.5 9.5C16.5 10.4793 16.0978 11.3647 15.4495 12C16.0978 12.6353 16.5 13.5207 16.5 14.5C16.5 16.433 14.933 18 13 18H9.5C8.94772 18 8.5 17.5523 8.5 17V12V7ZM10.5 11H13C13.8284 11 14.5 10.3284 14.5 9.5C14.5 8.67157 13.8284 8 13 8H10.5V11ZM10.5 13V16H13C13.8284 16 14.5 15.3284 14.5 14.5C14.5 13.6716 13.8284 13 13 13H10.5Z" clip-rule="evenodd"></path></svg>